<svg width="24" height="24" viewBox="0 0 24 24" fill="none" xmlns="http://www.w3.org/2000/svg">
    <g clip-path="url(#clip0_49127_180)">
        <rect width="24" height="24" fill="white"/>
        <rect width="24" height="24" rx="8" fill="#0E0E0E"/>
        <g clip-path="url(#clip1_49127_180)">
            <path d="M14.3898 18.0152C14.5004 18.2033 14.5303 18.4269 14.4731 18.6367C14.4159 18.8465 14.2761 19.0254 14.0846 19.134L13.0422 19.7253C12.7253 19.905 12.3658 19.9996 11.9998 19.9996C11.6339 19.9996 11.2744 19.905 10.9575 19.7253L9.91508 19.1332C9.72511 19.0238 9.58691 18.8451 9.53062 18.636C9.47434 18.4269 9.50454 18.2044 9.61465 18.0171C9.72475 17.8298 9.90582 17.6929 10.1183 17.6362C10.3308 17.5796 10.5576 17.6078 10.749 17.7147L11.7914 18.306C11.8547 18.3419 11.9266 18.3608 11.9998 18.3608C12.073 18.3608 12.1449 18.3419 12.2083 18.306L13.2507 17.7147C13.4422 17.6061 13.6698 17.5766 13.8835 17.6328C14.0971 17.6891 14.2792 17.8271 14.3898 18.0152ZM18.4993 11.2781C18.7204 11.2781 18.9325 11.3644 19.0889 11.518C19.2453 11.6716 19.3332 11.8799 19.3332 12.0971V14.9759C19.3332 15.3353 19.2368 15.6884 19.0539 15.9996C18.8709 16.3109 18.6077 16.5693 18.2908 16.7491L15.7524 18.1889C15.6575 18.2426 15.5528 18.2775 15.4441 18.2916C15.3355 18.3056 15.2252 18.2984 15.1193 18.2706C15.0135 18.2427 14.9143 18.1946 14.8274 18.1291C14.7405 18.0636 14.6676 17.9819 14.6129 17.8887C14.5581 17.7955 14.5226 17.6926 14.5083 17.5859C14.494 17.4793 14.5013 17.3709 14.5297 17.2669C14.5581 17.163 14.607 17.0656 14.6737 16.9803C14.7404 16.8949 14.8236 16.8233 14.9185 16.7695L17.4569 15.3305C17.5203 15.2946 17.5729 15.2429 17.6095 15.1806C17.6461 15.1184 17.6654 15.0478 17.6654 14.9759V12.0971C17.6654 11.8799 17.7532 11.6716 17.9096 11.518C18.066 11.3644 18.2781 11.2781 18.4993 11.2781ZM5.50041 11.2781C5.72157 11.2781 5.93368 11.3644 6.09006 11.518C6.24645 11.6716 6.33431 11.8799 6.33431 12.0971V14.9759C6.33431 15.0478 6.35358 15.1184 6.39017 15.1806C6.42677 15.2429 6.4794 15.2946 6.54278 15.3305L9.08118 16.7695C9.27115 16.8789 9.40936 17.0576 9.46564 17.2667C9.52193 17.4758 9.49172 17.6983 9.38161 17.8856C9.27151 18.0729 9.09044 18.2098 8.87793 18.2665C8.66542 18.3231 8.43871 18.2949 8.24728 18.188L5.70888 16.7499C5.39197 16.5702 5.1288 16.3117 4.94582 16.0004C4.76285 15.6892 4.66651 15.3361 4.6665 14.9767V12.0979C4.6665 11.8807 4.75436 11.6724 4.91075 11.5188C5.06714 11.3652 5.27924 11.2781 5.50041 11.2781ZM15.0227 8.28544L15.122 8.33212L16.3837 9.03483C16.4981 9.09865 16.5955 9.18817 16.668 9.29607C16.7405 9.40397 16.7859 9.52719 16.8006 9.65564L16.8056 9.75392L16.7948 11.179C16.7937 11.3053 16.7628 11.4297 16.7047 11.5423C16.6465 11.655 16.5626 11.7529 16.4595 11.8285L16.3778 11.8817L14.0846 13.1823V15.7834C14.0846 15.9099 14.0548 16.0346 13.9975 16.1479C13.9402 16.2611 13.857 16.3598 13.7544 16.4362L13.6726 16.4902L12.4218 17.211C12.3102 17.2753 12.1849 17.3132 12.0558 17.3217C11.9267 17.3303 11.7973 17.3092 11.678 17.2601L11.5779 17.211L10.327 16.4902C10.2159 16.4262 10.1213 16.3376 10.0509 16.2316C9.98041 16.1256 9.93593 16.005 9.92092 15.8793L9.91508 15.7834V13.1815L7.62185 11.8817C7.51032 11.8184 7.41524 11.7306 7.34406 11.6252C7.27287 11.5197 7.22753 11.3995 7.21157 11.274L7.2049 11.1782L7.19406 9.7531C7.1932 9.62402 7.22343 9.49656 7.28226 9.38113C7.3411 9.2657 7.42689 9.16556 7.53262 9.08889L7.61601 9.03483L8.87854 8.33212C8.98869 8.27068 9.11165 8.23468 9.23808 8.22688C9.36451 8.21907 9.49109 8.23966 9.60821 8.28708L9.70661 8.3354L11.9998 9.63516L14.2931 8.3354C14.4028 8.27316 14.5256 8.23631 14.652 8.22766C14.7785 8.219 14.9052 8.23876 15.0227 8.28544ZM16.6939 13.0398V14.1888C16.6939 14.3326 16.6553 14.4738 16.5821 14.5983C16.509 14.7228 16.4037 14.8262 16.2769 14.8981L15.2637 15.4722C15.2257 15.4938 15.1825 15.5051 15.1386 15.5051C15.0947 15.5051 15.0515 15.4938 15.0135 15.4722C14.9755 15.4506 14.9439 15.4196 14.9219 15.3822C14.9 15.3448 14.8884 15.3024 14.8885 15.2593V14.1102C14.8885 13.9665 14.927 13.8252 15.0002 13.7007C15.0734 13.5762 15.1787 13.4728 15.3054 13.401L16.3186 12.8268C16.3567 12.8053 16.3998 12.7939 16.4437 12.7939C16.4877 12.7939 16.5308 12.8053 16.5689 12.8269C16.6069 12.8485 16.6385 12.8795 16.6604 12.9169C16.6824 12.9542 16.6939 12.9966 16.6939 13.0398ZM7.62936 12.8047L7.68106 12.8268L8.69425 13.401C8.80666 13.4647 8.90237 13.5534 8.97374 13.6599C9.04511 13.7664 9.09018 13.8878 9.10536 14.0144L9.1112 14.1102V15.2593C9.11127 15.2978 9.1021 15.3358 9.08444 15.3703C9.06679 15.4047 9.04113 15.4345 9.00956 15.4574C8.97798 15.4803 8.94136 15.4956 8.90267 15.502C8.86398 15.5084 8.82429 15.5058 8.78681 15.4943L8.73595 15.4722L7.72275 14.8981C7.61045 14.8344 7.51481 14.7459 7.44344 14.6395C7.37207 14.5332 7.32695 14.412 7.31164 14.2855L7.3058 14.1888V13.0398C7.30567 13.0056 7.31279 12.9718 7.32669 12.9406C7.3406 12.9093 7.36099 12.8812 7.38657 12.858C7.41215 12.8349 7.44235 12.8173 7.47525 12.8063C7.50815 12.7953 7.54303 12.7911 7.57766 12.7941L7.63019 12.8047H7.62936ZM17.2109 6.6376L18.2908 7.25022C18.6077 7.42992 18.8709 7.68839 19.0539 7.99964C19.2368 8.31089 19.3332 8.66396 19.3332 9.02337V10.2052C19.3332 10.4224 19.2453 10.6307 19.0889 10.7843C18.9325 10.9379 18.7204 11.0242 18.4993 11.0242C18.2781 11.0242 18.066 10.9379 17.9096 10.7843C17.7532 10.6307 17.6654 10.4224 17.6654 10.2052V9.02337C17.6654 8.95148 17.6461 8.88087 17.6095 8.81862C17.5729 8.75637 17.5203 8.70468 17.4569 8.66874L16.377 8.05612C16.187 7.94674 16.0488 7.768 15.9925 7.55892C15.9362 7.34983 15.9664 7.12736 16.0766 6.94006C16.1867 6.75277 16.3677 6.61585 16.5802 6.55918C16.7928 6.50252 17.0195 6.53071 17.2109 6.6376ZM7.89037 6.95865C8.00095 7.14676 8.03091 7.3703 7.97367 7.58011C7.91644 7.78992 7.77669 7.9688 7.58516 8.07741L6.54278 8.66874C6.4794 8.70468 6.42677 8.75637 6.39017 8.81862C6.35358 8.88087 6.33431 8.95148 6.33431 9.02337V10.2052C6.33431 10.4224 6.24645 10.6307 6.09006 10.7843C5.93368 10.9379 5.72157 11.0242 5.50041 11.0242C5.27924 11.0242 5.06714 10.9379 4.91075 10.7843C4.75436 10.6307 4.6665 10.4224 4.6665 10.2052V9.02337C4.66637 8.66382 4.76263 8.31058 4.94561 7.99917C5.1286 7.68777 5.39184 7.42917 5.70888 7.2494L6.75126 6.65808C6.94279 6.54947 7.1704 6.52004 7.38402 6.57626C7.59765 6.63247 7.77978 6.77055 7.89037 6.95865ZM12.4168 6.91361L13.43 7.48773C13.4681 7.50927 13.4997 7.5403 13.5217 7.57768C13.5438 7.61507 13.5553 7.65749 13.5553 7.70067C13.5553 7.74385 13.5438 7.78627 13.5217 7.82366C13.4997 7.86104 13.4681 7.89207 13.43 7.91361L12.4168 8.4861C12.29 8.55798 12.1462 8.59582 11.9998 8.59582C11.8535 8.59582 11.7097 8.55798 11.5829 8.4861L10.5697 7.91197C10.5316 7.89043 10.4999 7.8594 10.4779 7.82202C10.4559 7.78464 10.4443 7.74222 10.4443 7.69903C10.4443 7.65585 10.4559 7.61343 10.4779 7.57605C10.4999 7.53866 10.5316 7.50763 10.5697 7.48609L11.5829 6.91361C11.7097 6.84172 11.8535 6.80388 11.9998 6.80388C12.1462 6.80388 12.29 6.84172 12.4168 6.91361ZM13.0422 4.27477L15.5806 5.71376C15.7723 5.82237 15.9121 6.0013 15.9694 6.21118C16.0267 6.42107 15.9968 6.64472 15.8862 6.83293C15.7757 7.02115 15.5935 7.15851 15.3798 7.2148C15.1661 7.2711 14.9383 7.24171 14.7467 7.1331L12.2083 5.69247C12.1449 5.65653 12.073 5.6376 11.9998 5.6376C11.9266 5.6376 11.8547 5.65653 11.7914 5.69247L9.25296 7.13146C9.15809 7.18609 9.05315 7.22174 8.94419 7.23637C8.83523 7.25101 8.7244 7.24433 8.61808 7.21672C8.51175 7.18911 8.41204 7.14112 8.32468 7.07551C8.23732 7.0099 8.16404 6.92797 8.10905 6.83443C8.05406 6.74089 8.01845 6.63759 8.00428 6.53048C7.9901 6.42337 7.99764 6.31457 8.02645 6.21033C8.05527 6.10609 8.10479 6.00848 8.17217 5.92312C8.23955 5.83776 8.32346 5.76633 8.41906 5.71294L10.9575 4.27395C11.2744 4.09424 11.6339 3.99963 11.9998 3.99963C12.3658 3.99963 12.7253 4.09424 13.0422 4.27395V4.27477Z" fill="#F3BA2F"/>
        </g>
    </g>
    <defs>
        <clipPath id="clip0_49127_180">
            <rect width="24" height="24" fill="white"/>
        </clipPath>
        <clipPath id="clip1_49127_180">
            <rect width="16" height="16" fill="white" transform="translate(4 4)"/>
        </clipPath>
    </defs>
</svg>
