<svg width="24" height="24" viewBox="0 0 24 24" fill="none" xmlns="http://www.w3.org/2000/svg">
    <ellipse cx="12.04" cy="12.0001" rx="9.98137" ry="10.0001" fill="white"/>
    <path d="M6.1561 11.506C6.15612 11.3942 6.17818 11.2835 6.22104 11.1802C6.2639 11.0769 6.32668 10.9832 6.4058 10.9043C6.48493 10.8254 6.57884 10.7629 6.68212 10.7205C6.7854 10.6781 6.89603 10.6565 7.00766 10.657L8.41946 10.6616C8.64456 10.6616 8.86045 10.7512 9.01962 10.9107C9.1788 11.0702 9.26822 11.2865 9.26822 11.512V16.8607C9.42723 16.8135 9.63073 16.7632 9.85466 16.7103C10.0098 16.6738 10.1481 16.5858 10.247 16.4606C10.346 16.3354 10.3999 16.1805 10.3999 16.0208V9.38653C10.3999 9.16099 10.4893 8.94468 10.6485 8.78519C10.8077 8.62569 11.0235 8.53607 11.2487 8.53602H12.6647C12.8899 8.53607 13.1057 8.62569 13.2649 8.78519C13.4241 8.94468 13.5135 9.16099 13.5135 9.38653V15.5442C13.5135 15.5442 13.8678 15.4006 14.2126 15.2546C14.3408 15.2003 14.4502 15.1094 14.5271 14.9932C14.604 14.8771 14.6451 14.7408 14.6452 14.6014V7.26058C14.6452 7.03509 14.7346 6.81883 14.8937 6.65936C15.0529 6.49988 15.2687 6.41028 15.4938 6.41023H16.9084C17.1333 6.41046 17.349 6.50013 17.508 6.65959C17.667 6.81904 17.7563 7.0352 17.7563 7.26058V13.3055C18.9828 12.415 20.2257 11.3439 21.212 10.0561C21.355 9.86919 21.4498 9.64967 21.4877 9.41715C21.5254 9.18463 21.5053 8.94635 21.4289 8.72355C20.9723 7.40753 20.2464 6.20148 19.298 5.18259C18.3495 4.16371 17.1991 3.35441 15.9205 2.80651C14.6419 2.2586 13.2631 1.98415 11.8726 2.00071C10.482 2.01727 9.11022 2.32448 7.84497 2.90268C6.57971 3.48088 5.44887 4.31734 4.52479 5.35852C3.60072 6.39971 2.90377 7.6227 2.47855 8.94924C2.05332 10.2758 1.90918 11.6766 2.05534 13.0622C2.20151 14.4477 2.63477 15.7874 3.32739 16.9956C3.44806 17.204 3.6256 17.3736 3.83914 17.4844C4.05268 17.5953 4.29335 17.6427 4.5329 17.6213C4.80049 17.5977 5.13367 17.5643 5.52979 17.5178C5.70218 17.4981 5.86135 17.4156 5.97696 17.286C6.09258 17.1564 6.15658 16.9887 6.15676 16.8148V11.506" fill="#12161C"/>
    <path d="M6.125 20.0854C7.61609 21.1721 9.3782 21.8246 11.2164 21.9702C13.0545 22.1159 14.8971 21.7493 16.5402 20.911C18.1833 20.0727 19.5629 18.7953 20.5264 17.2202C21.4898 15.645 21.9996 13.8336 21.9993 11.9862C21.9993 11.7551 21.9886 11.5276 21.9733 11.3008C18.3213 16.7576 11.5784 19.3087 6.125 20.0854Z" fill="#F0B90B"/>
</svg>
