<svg width="24" height="24" viewBox="0 0 24 24" fill="none" xmlns="http://www.w3.org/2000/svg">
    <path d="M17.5644 11.9434L12.7626 14.7156C12.4532 14.8943 12.072 14.8943 11.7626 14.7156L6.96094 11.9434" stroke="#9A9A9A" stroke-width="1.5" stroke-miterlimit="10"/>
    <path d="M12.2626 21.1246L7.46094 18.3523C7.15154 18.1737 6.96094 17.8436 6.96094 17.4863V12.5191C6.96094 12.1619 7.15154 11.8318 7.46094 11.6531L11.7626 9.16953C12.072 8.9909 12.4532 8.9909 12.7626 9.16953L17.0644 11.6531C17.3738 11.8318 17.5644 12.1619 17.5644 12.5191V17.4863C17.5644 17.8436 17.3738 18.1737 17.0644 18.3523L12.2626 21.1246ZM12.2626 21.1246V15.0027" stroke="#9A9A9A" stroke-width="1.5" stroke-miterlimit="10"/>
    <path d="M12.2639 6.01213C13.1129 6.01213 13.8012 5.32385 13.8012 4.47482C13.8012 3.62578 13.1129 2.9375 12.2639 2.9375C11.4148 2.9375 10.7266 3.62578 10.7266 4.47482C10.7266 5.32385 11.4148 6.01213 12.2639 6.01213Z" stroke="#9A9A9A" stroke-width="1.5" stroke-miterlimit="10"/>
    <path d="M12.2656 6.09375V9.15469" stroke="#9A9A9A" stroke-width="1.5" stroke-miterlimit="10"/>
    <path d="M3.46318 21.7607C4.302 21.6294 4.87552 20.8429 4.74418 20.0041C4.61284 19.1653 3.82638 18.5918 2.98756 18.7231C2.14874 18.8545 1.57522 19.6409 1.70656 20.4797C1.8379 21.3186 2.62437 21.8921 3.46318 21.7607Z" stroke="#9A9A9A" stroke-width="1.5" stroke-miterlimit="10"/>
    <path d="M4.625 19.4311L7.27234 17.8945" stroke="#9A9A9A" stroke-width="1.5" stroke-miterlimit="10"/>
    <path d="M22.8242 20.4759C22.9539 19.6369 22.3789 18.8515 21.5398 18.7218C20.7008 18.592 19.9154 19.1671 19.7857 20.0061C19.6559 20.8452 20.231 21.6306 21.07 21.7603C21.9091 21.89 22.6945 21.315 22.8242 20.4759Z" stroke="#9A9A9A" stroke-width="1.5" stroke-miterlimit="10"/>
    <path d="M19.9052 19.4311L17.2578 17.8945" stroke="#9A9A9A" stroke-width="1.5" stroke-miterlimit="10"/>
</svg>
