<svg width="24" height="24" viewBox="0 0 24 24" fill="none" xmlns="http://www.w3.org/2000/svg">
    <path fill-rule="evenodd" clip-rule="evenodd" d="M21 12C21 16.9707 16.9707 21 12 21C7.0293 21 3 16.9707 3 12C3 7.0293 7.0293 3 12 3C16.9707 3 21 7.0293 21 12ZM16.995 9.68247C17.2683 9.40911 17.2683 8.96589 16.995 8.69253C16.7216 8.41916 16.2784 8.41916 16.005 8.69253L10.875 13.8225L8.55747 11.505C8.28411 11.2317 7.84089 11.2317 7.56753 11.505C7.29416 11.7784 7.29416 12.2216 7.56753 12.495L10.38 15.3075C10.6534 15.5808 11.0966 15.5808 11.37 15.3075L16.995 9.68247Z" fill="#35D487"/>
</svg>
