<svg width="48" height="49" viewBox="0 0 48 49" fill="none" xmlns="http://www.w3.org/2000/svg">
    <rect y="0.5" width="48" height="48" rx="12" fill="#0166FF"/>
    <g transform="translate(10, 10)">
        <path d="M11.2337 22.7954V22.6475C11.2337 21.5482 10.5479 20.59 9.68921 19.9042C8.56846 19.0104 7.75326 17.7903 7.35643 16.4128C6.95959 15.0353 7.00076 13.5686 7.47423 12.2155C7.94769 10.8625 8.83004 9.69004 9.99915 8.86051C11.1683 8.03099 12.5663 7.58539 13.9998 7.58539C15.4333 7.58539 16.8314 8.03099 18.0005 8.86051C19.1696 9.69004 20.052 10.8625 20.5254 12.2155C20.9989 13.5686 21.0401 15.0353 20.6432 16.4128C20.2464 17.7903 19.4312 19.0104 18.3104 19.9042C17.4504 20.5914 16.7646 21.5482 16.7646 22.6475V22.7954M11.2337 22.7954V25.5609C11.2337 25.9276 11.3794 26.2793 11.6387 26.5386C11.898 26.7979 12.2497 26.9436 12.6164 26.9436H15.3818C15.7486 26.9436 16.1003 26.7979 16.3596 26.5386C16.6189 26.2793 16.7646 25.9276 16.7646 25.5609V22.7954M11.2337 22.7954H16.7646M25.0609 14.4991H26.4436M2.9374 14.4991H1.55469M13.9991 3.4374V2.05469M21.8212 6.67711L22.7987 5.69953M6.17849 6.67711L5.19953 5.69953M13.9991 18.6473V15.8818" stroke="white" stroke-width="1.5" stroke-linecap="round" stroke-linejoin="round"/>
    </g>
</svg>
