<svg width="25" height="24" viewBox="0 0 25 24" fill="none" xmlns="http://www.w3.org/2000/svg">
    <path d="M17.7734 8.16051C17.7734 6.99449 17.5044 5.91817 16.7868 5.11093C16.0693 4.30369 14.9929 3.85522 13.6475 3.94491H8.6247C7.2793 3.94491 6.20298 4.30369 5.48543 5.11093C4.76788 5.91817 4.4988 6.99449 4.4988 8.16051V15.6948C4.4988 16.9505 4.76788 18.0268 5.48543 18.834C6.20298 19.5516 7.2793 20 8.6247 20H13.6475C14.9929 20 16.0693 19.6413 16.7868 18.834C17.5044 18.0268 17.7734 16.8608 17.7734 15.6948" stroke="#FD4E4E" stroke-width="1.3" stroke-linecap="round"/>
    <path d="M21.9005 11.9277H13.8281" stroke="#FD4E4E" stroke-width="1.2" stroke-linecap="round"/>
    <path d="M21.8986 11.9279L19.6562 9.68555" stroke="#FD4E4E" stroke-width="1.2" stroke-linecap="round"/>
    <path d="M21.8986 12.0176L19.6562 14.3496" stroke="#FD4E4E" stroke-width="1.2" stroke-linecap="round"/>
</svg>
