<svg width="24" height="24" viewBox="0 0 24 24" fill="none" xmlns="http://www.w3.org/2000/svg">
    <path d="M12 21C16.968 21 21 16.968 21 12C21 7.032 16.968 3 12 3C7.032 3 3 7.032 3 12C3 16.968 7.032 21 12 21Z" fill="#FD4E4E"/>
    <path d="M11 12C11 12.55 11.45 13 12 13C12.55 13 13 12.55 13 12V8C13 7.45 12.55 7 12 7C11.45 7 11 7.45 11 8V12Z" fill="white"/>
    <path d="M13 16C13 15.4477 12.5523 15 12 15C11.4477 15 11 15.4477 11 16C11 16.5523 11.4477 17 12 17C12.5523 17 13 16.5523 13 16Z" fill="white"/>
</svg>
