<svg width="188" height="40" viewBox="0 0 188 40" fill="none" xmlns="http://www.w3.org/2000/svg">
    <g clip-path="url(#clip0_48372_185417)">
        <path d="M20.4513 0L18.5391 12.4776L20.4513 18.744L22.3637 12.4776L20.4513 0Z" fill="black"/>
        <path d="M20.4513 40.0019L22.3637 27.5243L20.4513 21.2578L18.5391 27.5243L20.4513 40.0019Z" fill="black"/>
        <path d="M40.9064 20.0008L28.1464 18.1309L21.7383 20.0008L28.1464 21.8707L40.9064 20.0008Z" fill="black"/>
        <path d="M0 20.0008L12.76 21.8707L19.1682 20.0008L12.76 18.1309L0 20.0008Z" fill="black"/>
        <path d="M34.8268 5.77344L24.4988 13.3357L21.3555 19.1078L27.2196 15.9641L34.8268 5.77344Z" fill="black"/>
        <path d="M6.07812 34.2289L16.4061 26.6667L19.5494 20.8945L13.6854 24.0382L6.07812 34.2289Z" fill="black"/>
        <path d="M35.0034 34.0579L27.27 23.9585L21.3672 20.8848L24.582 26.6189L35.0034 34.0579Z" fill="black"/>
        <path d="M5.90234 5.94531L13.6358 16.0448L19.5385 19.1185L16.3237 13.3842L5.90234 5.94531Z" fill="black"/>
        <path d="M47.9539 26.4657H45.5781V14.0234H47.9539V26.4657Z" fill="black"/>
        <path d="M57.0452 19.5049C56.9807 19.5852 56.9163 19.6483 56.8516 19.6942C56.793 19.7401 56.7049 19.763 56.5876 19.763C56.4762 19.763 56.3678 19.7315 56.262 19.6683C56.1564 19.5995 56.0304 19.5249 55.8837 19.4446C55.7371 19.3586 55.561 19.284 55.3557 19.2209C55.1563 19.1521 54.907 19.1177 54.6078 19.1177C54.2264 19.1177 53.8922 19.1865 53.6048 19.3242C53.3172 19.4561 53.0768 19.6483 52.8832 19.9007C52.6954 20.1531 52.5547 20.46 52.4607 20.8214C52.3669 21.1769 52.32 21.5814 52.32 22.0345C52.32 22.505 52.3698 22.9238 52.4696 23.2909C52.5751 23.6579 52.7247 23.9678 52.9183 24.2202C53.1119 24.4668 53.3466 24.6561 53.6224 24.788C53.898 24.9143 54.2089 24.9773 54.5551 24.9773C54.9012 24.9773 55.1799 24.9371 55.391 24.8569C55.6079 24.7709 55.7899 24.6792 55.9366 24.5816C56.0831 24.4783 56.2093 24.3864 56.3149 24.3062C56.4265 24.2202 56.5496 24.1771 56.6845 24.1771C56.8605 24.1771 56.9925 24.2432 57.0805 24.3751L57.7053 25.1495C57.4646 25.4248 57.2037 25.6571 56.9221 25.8464C56.6405 26.0301 56.3471 26.1791 56.0422 26.2939C55.743 26.4028 55.4321 26.4804 55.1094 26.5262C54.7867 26.5721 54.4671 26.5951 54.1502 26.5951C53.593 26.5951 53.0679 26.4947 52.5751 26.2939C52.0824 26.0874 51.6513 25.7891 51.2817 25.3989C50.9181 25.0088 50.6276 24.5329 50.4105 23.9707C50.1993 23.4028 50.0938 22.7573 50.0938 22.0345C50.0938 21.3864 50.1875 20.787 50.3753 20.2363C50.5689 19.6798 50.8505 19.2008 51.2201 18.7993C51.5897 18.392 52.0473 18.0736 52.5927 17.8442C53.1383 17.6147 53.766 17.5 54.4758 17.5C55.1505 17.5 55.74 17.6061 56.2445 17.8184C56.7549 18.0306 57.2123 18.3346 57.6173 18.7304L57.0452 19.5049Z" fill="black"/>
        <path d="M62.8185 17.5C63.3877 17.5 63.9097 17.5889 64.3849 17.7667C64.8659 17.9446 65.2795 18.2056 65.6255 18.5498C65.9718 18.8882 66.2416 19.3069 66.4351 19.806C66.6287 20.2994 66.7254 20.8644 66.7254 21.5012C66.7254 21.6618 66.7167 21.7965 66.6992 21.9056C66.6874 22.0088 66.6609 22.0919 66.6198 22.1551C66.5847 22.2125 66.5349 22.2555 66.4703 22.2842C66.4058 22.307 66.3236 22.3185 66.224 22.3185H60.6452C60.7096 23.2248 60.959 23.8903 61.393 24.3149C61.8273 24.7394 62.402 24.9515 63.1177 24.9515C63.4697 24.9515 63.7719 24.9115 64.0242 24.8311C64.2822 24.7509 64.5051 24.6618 64.6929 24.5644C64.8865 24.4668 65.0537 24.3779 65.1943 24.2975C65.341 24.2173 65.4819 24.1771 65.6168 24.1771C65.7048 24.1771 65.7811 24.1943 65.8455 24.2288C65.9102 24.2632 65.9658 24.3119 66.0127 24.3751L66.6463 25.1495C66.4058 25.4248 66.136 25.6571 65.8368 25.8464C65.5375 26.0301 65.2237 26.1791 64.8952 26.2939C64.5725 26.4028 64.2411 26.4804 63.9009 26.5262C63.5666 26.5721 63.241 26.5951 62.9241 26.5951C62.2965 26.5951 61.7128 26.4947 61.1732 26.2939C60.6334 26.0874 60.1642 25.7862 59.7653 25.3905C59.3663 24.9888 59.0525 24.4955 58.8236 23.9105C58.5949 23.3196 58.4805 22.6369 58.4805 21.8626C58.4805 21.2602 58.5803 20.6951 58.7796 20.1674C58.9792 19.6339 59.2637 19.1721 59.6333 18.7821C60.0086 18.3863 60.4634 18.0736 60.9972 17.8442C61.5368 17.6147 62.144 17.5 62.8185 17.5ZM62.8625 19.023C62.2291 19.023 61.7333 19.198 61.3755 19.5479C61.0176 19.8978 60.7889 20.3939 60.6892 21.0365H64.7721C64.7721 20.7612 64.7338 20.503 64.6576 20.262C64.5814 20.0154 64.464 19.8003 64.3056 19.6167C64.1473 19.4332 63.9478 19.2897 63.7073 19.1865C63.4668 19.0775 63.1852 19.023 62.8625 19.023Z" fill="black"/>
        <path d="M84.2202 20.2454C84.2202 21.1576 84.0649 22.0036 83.7539 22.7838C83.443 23.5582 83.0059 24.2295 82.4427 24.7974C81.8795 25.3652 81.2021 25.8097 80.41 26.1311C79.6181 26.4465 78.7411 26.6042 77.779 26.6042C76.8169 26.6042 75.9371 26.4465 75.1392 26.1311C74.3473 25.8097 73.6668 25.3652 73.0978 24.7974C72.5347 24.2295 72.0977 23.5582 71.7868 22.7838C71.4759 22.0036 71.3203 21.1576 71.3203 20.2454C71.3203 19.3334 71.4759 18.4902 71.7868 17.7157C72.0977 16.9356 72.5347 16.2616 73.0978 15.6937C73.6668 15.1258 74.3473 14.6841 75.1392 14.3686C75.9371 14.0473 76.8169 13.8867 77.779 13.8867C78.7411 13.8867 79.6181 14.0473 80.41 14.3686C81.2021 14.6898 81.8795 15.1344 82.4427 15.7023C83.0059 16.2644 83.443 16.9356 83.7539 17.7157C84.0649 18.4902 84.2202 19.3334 84.2202 20.2454ZM81.7915 20.2454C81.7915 19.5629 81.6977 18.9519 81.5099 18.4127C81.3281 17.8678 81.0641 17.406 80.718 17.0274C80.372 16.6488 79.9495 16.3591 79.451 16.1583C78.9583 15.9575 78.4009 15.8572 77.779 15.8572C77.1572 15.8572 76.5971 15.9575 76.0984 16.1583C75.5997 16.3591 75.1745 16.6488 74.8225 17.0274C74.4764 17.406 74.2095 17.8678 74.0217 18.4127C73.8339 18.9519 73.7401 19.5629 73.7401 20.2454C73.7401 20.9281 73.8339 21.542 74.0217 22.0869C74.2095 22.6261 74.4764 23.085 74.8225 23.4636C75.1745 23.8366 75.5997 24.1232 76.0984 24.324C76.5971 24.5248 77.1572 24.6252 77.779 24.6252C78.4009 24.6252 78.9583 24.5248 79.451 24.324C79.9495 24.1232 80.372 23.8366 80.718 23.4636C81.0641 23.085 81.3281 22.6261 81.5099 22.0869C81.6977 21.542 81.7915 20.9281 81.7915 20.2454Z" fill="black"/>
        <path d="M85.9648 29.3469V17.6362H87.2937C87.4343 17.6362 87.5546 17.6677 87.6544 17.7308C87.7541 17.7939 87.8186 17.8914 87.8479 18.0233L88.024 18.8408C88.3876 18.4335 88.8043 18.1037 89.2734 17.8513C89.7486 17.5989 90.3029 17.4727 90.9365 17.4727C91.4292 17.4727 91.8782 17.573 92.2829 17.7738C92.6934 17.9746 93.0454 18.2671 93.3388 18.6515C93.6379 19.0301 93.8666 19.5005 94.0251 20.0626C94.1893 20.619 94.2716 21.2586 94.2716 21.9815C94.2716 22.6411 94.1806 23.252 93.9986 23.8142C93.8168 24.3764 93.5559 24.8639 93.2156 25.277C92.8812 25.6899 92.4736 26.0142 91.9924 26.2493C91.5172 26.4788 90.9834 26.5936 90.3909 26.5936C89.8806 26.5936 89.4466 26.5188 89.0887 26.3697C88.7367 26.215 88.42 26.0027 88.1384 25.733V29.3469H85.9648ZM90.1886 19.1506C89.7368 19.1506 89.3497 19.2452 89.0272 19.4345C88.7103 19.6181 88.414 19.8791 88.1384 20.2174V24.1756C88.3847 24.474 88.6516 24.6833 88.9392 24.8037C89.2323 24.9184 89.5463 24.9758 89.8806 24.9758C90.2091 24.9758 90.5053 24.9156 90.7694 24.7952C91.0392 24.6746 91.265 24.4912 91.447 24.2445C91.6346 23.9978 91.7784 23.6879 91.8782 23.3152C91.9777 22.9366 92.0277 22.492 92.0277 21.9815C92.0277 21.4651 91.9837 21.0291 91.8957 20.6736C91.8135 20.3122 91.6933 20.0196 91.5348 19.7959C91.3766 19.5722 91.183 19.4087 90.9541 19.3054C90.7312 19.2022 90.476 19.1506 90.1886 19.1506Z" fill="black"/>
        <path d="M99.6466 17.5C100.216 17.5 100.738 17.5889 101.213 17.7667C101.694 17.9446 102.108 18.2056 102.454 18.5498C102.8 18.8882 103.069 19.3069 103.263 19.806C103.457 20.2994 103.554 20.8644 103.554 21.5012C103.554 21.6618 103.545 21.7965 103.527 21.9056C103.515 22.0088 103.489 22.0919 103.448 22.1551C103.413 22.2125 103.363 22.2555 103.298 22.2842C103.234 22.307 103.152 22.3185 103.052 22.3185H97.4731C97.5377 23.2248 97.7871 23.8903 98.2211 24.3149C98.6552 24.7394 99.2301 24.9515 99.9458 24.9515C100.298 24.9515 100.6 24.9115 100.852 24.8311C101.11 24.7509 101.333 24.6618 101.521 24.5644C101.714 24.4668 101.882 24.3779 102.022 24.2975C102.169 24.2173 102.31 24.1771 102.445 24.1771C102.533 24.1771 102.609 24.1943 102.674 24.2288C102.738 24.2632 102.794 24.3119 102.841 24.3751L103.474 25.1495C103.234 25.4248 102.964 25.6571 102.665 25.8464C102.366 26.0301 102.052 26.1791 101.723 26.2939C101.401 26.4028 101.069 26.4804 100.729 26.5262C100.395 26.5721 100.069 26.5951 99.7522 26.5951C99.1246 26.5951 98.5407 26.4947 98.0011 26.2939C97.4615 26.0874 96.9921 25.7862 96.5932 25.3905C96.1943 24.9888 95.8804 24.4955 95.6517 23.9105C95.4228 23.3196 95.3086 22.6369 95.3086 21.8626C95.3086 21.2602 95.4082 20.6951 95.6077 20.1674C95.8071 19.6339 96.0916 19.1721 96.4612 18.7821C96.8368 18.3863 97.2913 18.0736 97.8251 17.8442C98.3649 17.6147 98.9719 17.5 99.6466 17.5ZM99.6906 19.023C99.057 19.023 98.5614 19.198 98.2036 19.5479C97.8458 19.8978 97.6169 20.3939 97.5171 21.0365H101.6C101.6 20.7612 101.562 20.503 101.486 20.262C101.41 20.0154 101.292 19.8003 101.134 19.6167C100.975 19.4332 100.776 19.2897 100.535 19.1865C100.295 19.0775 100.013 19.023 99.6906 19.023Z" fill="black"/>
        <path d="M105.32 26.466V17.6377H106.649C106.931 17.6377 107.115 17.7667 107.203 18.0249L107.353 18.7218C107.535 18.5383 107.725 18.3719 107.925 18.2228C108.13 18.0736 108.344 17.9446 108.567 17.8356C108.796 17.7266 109.039 17.6434 109.298 17.586C109.556 17.5287 109.837 17.5 110.142 17.5C110.635 17.5 111.072 17.5832 111.453 17.7495C111.835 17.9101 112.152 18.1396 112.404 18.4379C112.662 18.7304 112.855 19.0832 112.985 19.4963C113.119 19.9035 113.187 20.3539 113.187 20.8472V26.466H111.013V20.8472C111.013 20.308 110.884 19.8921 110.626 19.5995C110.374 19.3012 109.993 19.1521 109.482 19.1521C109.107 19.1521 108.755 19.2353 108.426 19.4016C108.098 19.568 107.787 19.7945 107.494 20.0814V26.466H105.32Z" fill="black"/>
        <path d="M120.088 14.0234C120.194 14.0234 120.282 14.0292 120.352 14.0407C120.423 14.0464 120.484 14.0636 120.537 14.0923C120.596 14.1152 120.652 14.1525 120.704 14.2041C120.757 14.25 120.816 14.3131 120.88 14.3934L127.559 22.714C127.536 22.5132 127.518 22.3182 127.506 22.129C127.5 21.934 127.498 21.7532 127.498 21.5869V14.0234H129.583V26.4657H128.36C128.172 26.4657 128.017 26.437 127.894 26.3797C127.77 26.3223 127.65 26.2191 127.533 26.0698L120.88 17.7836C120.898 17.9672 120.91 18.1508 120.916 18.3343C120.927 18.5122 120.933 18.6757 120.933 18.8248V26.4657H118.848V14.0234H120.088Z" fill="black"/>
        <path d="M135.76 17.5C136.329 17.5 136.851 17.5889 137.326 17.7667C137.807 17.9446 138.221 18.2056 138.567 18.5498C138.913 18.8882 139.183 19.3069 139.377 19.806C139.57 20.2994 139.667 20.8644 139.667 21.5012C139.667 21.6618 139.658 21.7965 139.641 21.9056C139.629 22.0088 139.602 22.0919 139.561 22.1551C139.526 22.2125 139.476 22.2555 139.412 22.2842C139.347 22.307 139.265 22.3185 139.165 22.3185H133.587C133.651 23.2248 133.9 23.8903 134.334 24.3149C134.769 24.7394 135.343 24.9515 136.059 24.9515C136.411 24.9515 136.713 24.9115 136.966 24.8311C137.224 24.7509 137.447 24.6618 137.634 24.5644C137.828 24.4668 137.995 24.3779 138.136 24.2975C138.282 24.2173 138.423 24.1771 138.558 24.1771C138.646 24.1771 138.722 24.1943 138.787 24.2288C138.852 24.2632 138.907 24.3119 138.954 24.3751L139.588 25.1495C139.347 25.4248 139.077 25.6571 138.778 25.8464C138.479 26.0301 138.165 26.1791 137.837 26.2939C137.514 26.4028 137.183 26.4804 136.842 26.5262C136.508 26.5721 136.182 26.5951 135.866 26.5951C135.238 26.5951 134.654 26.4947 134.115 26.2939C133.575 26.0874 133.106 25.7862 132.707 25.3905C132.308 24.9888 131.994 24.4955 131.765 23.9105C131.536 23.3196 131.422 22.6369 131.422 21.8626C131.422 21.2602 131.522 20.6951 131.721 20.1674C131.921 19.6339 132.205 19.1721 132.575 18.7821C132.95 18.3863 133.405 18.0736 133.939 17.8442C134.478 17.6147 135.085 17.5 135.76 17.5ZM135.804 19.023C135.171 19.023 134.675 19.198 134.317 19.5479C133.959 19.8978 133.73 20.3939 133.631 21.0365H137.713C137.713 20.7612 137.675 20.503 137.599 20.262C137.523 20.0154 137.405 19.8003 137.247 19.6167C137.089 19.4332 136.889 19.2897 136.649 19.1865C136.408 19.0775 136.127 19.023 135.804 19.023Z" fill="black"/>
        <path d="M144.393 26.6033C143.613 26.6033 143.012 26.3882 142.589 25.9581C142.167 25.5221 141.956 24.9225 141.956 24.1597V19.2292H141.041C140.923 19.2292 140.821 19.1919 140.733 19.1174C140.65 19.0428 140.609 18.9309 140.609 18.7818V17.9385L142.061 17.7062L142.519 15.2969C142.542 15.1822 142.595 15.0933 142.677 15.0302C142.765 14.9671 142.874 14.9355 143.003 14.9355H144.129V17.7148H146.505V19.2292H144.129V24.0134C144.129 24.2888 144.2 24.5039 144.34 24.6587C144.481 24.8136 144.669 24.891 144.904 24.891C145.039 24.891 145.15 24.8766 145.238 24.8479C145.332 24.8136 145.411 24.7793 145.475 24.7447C145.546 24.7104 145.607 24.6789 145.66 24.6502C145.713 24.6156 145.766 24.5985 145.819 24.5985C145.883 24.5985 145.936 24.6156 145.977 24.6502C146.018 24.6789 146.062 24.7247 146.109 24.7877L146.76 25.8203C146.443 26.0785 146.08 26.2734 145.669 26.4055C145.258 26.5374 144.833 26.6033 144.393 26.6033Z" fill="black"/>
        <path d="M147.133 17.6364H148.857C149.022 17.6364 149.16 17.6736 149.271 17.7482C149.383 17.8228 149.453 17.9174 149.482 18.0322L150.776 22.7475C150.846 23.0055 150.902 23.258 150.943 23.5047C150.99 23.7514 151.034 23.998 151.075 24.2447C151.139 23.998 151.207 23.7514 151.277 23.5047C151.354 23.258 151.433 23.0055 151.515 22.7475L153.011 18.0149C153.046 17.9002 153.116 17.8056 153.222 17.731C153.328 17.6564 153.451 17.6191 153.592 17.6191H154.551C154.709 17.6191 154.841 17.6564 154.947 17.731C155.052 17.8056 155.123 17.9002 155.158 18.0149L156.636 22.8336C156.712 23.0803 156.78 23.3211 156.839 23.5562C156.903 23.7857 156.965 24.018 157.023 24.2532C157.064 24.0065 157.108 23.7598 157.155 23.5132C157.208 23.2665 157.273 23.0114 157.349 22.7475L158.686 18.0322C158.716 17.9174 158.786 17.8228 158.897 17.7482C159.009 17.6736 159.138 17.6364 159.285 17.6364H160.93L158.07 26.4647H156.319C156.132 26.4647 155.997 26.3384 155.915 26.0861L154.287 20.9835C154.234 20.8172 154.184 20.6508 154.137 20.4845C154.096 20.3124 154.061 20.1431 154.032 19.9768C153.996 20.1489 153.958 20.3211 153.917 20.493C153.876 20.6594 153.829 20.8287 153.776 21.0007L152.131 26.0861C152.049 26.3384 151.89 26.4647 151.656 26.4647H149.993L147.133 17.6364Z" fill="black"/>
        <path d="M166.01 17.5C166.685 17.5 167.295 17.6061 167.84 17.8184C168.392 18.0306 168.861 18.3318 169.248 18.7218C169.635 19.1119 169.935 19.588 170.146 20.1502C170.357 20.7123 170.463 21.3406 170.463 22.0345C170.463 22.7345 170.357 23.3654 170.146 23.9276C169.935 24.4899 169.635 24.9688 169.248 25.3646C168.861 25.7604 168.392 26.0644 167.84 26.2767C167.295 26.4888 166.685 26.5951 166.01 26.5951C165.335 26.5951 164.723 26.4888 164.171 26.2767C163.62 26.0644 163.147 25.7604 162.754 25.3646C162.367 24.9688 162.065 24.4899 161.848 23.9276C161.637 23.3654 161.531 22.7345 161.531 22.0345C161.531 21.3406 161.637 20.7123 161.848 20.1502C162.065 19.588 162.367 19.1119 162.754 18.7218C163.147 18.3318 163.62 18.0306 164.171 17.8184C164.723 17.6061 165.335 17.5 166.01 17.5ZM166.01 24.9602C166.761 24.9602 167.315 24.7135 167.673 24.2202C168.037 23.7268 168.219 23.004 168.219 22.0519C168.219 21.0996 168.037 20.3739 167.673 19.8748C167.315 19.3758 166.761 19.1263 166.01 19.1263C165.247 19.1263 164.684 19.3787 164.321 19.8835C163.957 20.3826 163.775 21.1052 163.775 22.0519C163.775 22.9983 163.957 23.7212 164.321 24.2202C164.684 24.7135 165.247 24.9602 166.01 24.9602Z" fill="black"/>
        <path d="M172.152 26.4645V17.6362H173.428C173.651 17.6362 173.807 17.6763 173.895 17.7566C173.983 17.8369 174.041 17.9746 174.071 18.1696L174.203 19.2366C174.525 18.6916 174.904 18.2614 175.338 17.9459C175.772 17.6304 176.259 17.4727 176.798 17.4727C177.244 17.4727 177.614 17.573 177.907 17.7738L177.626 19.3657C177.608 19.4689 177.57 19.5435 177.511 19.5894C177.453 19.6295 177.373 19.6496 177.274 19.6496C177.186 19.6496 177.065 19.6295 176.913 19.5894C176.76 19.5492 176.558 19.5291 176.306 19.5291C175.854 19.5291 175.467 19.6525 175.144 19.8991C174.822 20.1401 174.549 20.4958 174.326 20.9661V26.4645H172.152Z" fill="black"/>
        <path d="M181.541 13.6797V21.0021H181.945C182.092 21.0021 182.206 20.9821 182.288 20.9419C182.371 20.9017 182.459 20.8272 182.552 20.7183L184.796 18.0078C184.896 17.8931 185.002 17.8042 185.113 17.7411C185.225 17.6722 185.371 17.6378 185.553 17.6378H187.542L184.735 20.9161C184.635 21.0367 184.532 21.1484 184.427 21.2518C184.321 21.3492 184.207 21.4352 184.084 21.5098C184.207 21.5958 184.315 21.6963 184.409 21.811C184.503 21.9257 184.597 22.049 184.691 22.1811L187.7 26.4662H185.738C185.568 26.4662 185.424 26.4375 185.307 26.3801C185.189 26.3227 185.084 26.2251 184.99 26.0876L182.693 22.7403C182.605 22.6084 182.517 22.5223 182.429 22.4821C182.341 22.4421 182.209 22.4219 182.033 22.4219H181.541V26.4662H179.367V13.6797H181.541Z" fill="black"/>
        <path d="M47.9539 26.4657H45.5781V14.0234H47.9539V26.4657Z" stroke="black" stroke-width="0.177765"/>
        <path d="M57.0452 19.5049C56.9807 19.5852 56.9163 19.6483 56.8516 19.6942C56.793 19.7401 56.7049 19.763 56.5876 19.763C56.4762 19.763 56.3678 19.7315 56.262 19.6683C56.1564 19.5995 56.0304 19.5249 55.8837 19.4446C55.7371 19.3586 55.561 19.284 55.3557 19.2209C55.1563 19.1521 54.907 19.1177 54.6078 19.1177C54.2264 19.1177 53.8922 19.1865 53.6048 19.3242C53.3172 19.4561 53.0768 19.6483 52.8832 19.9007C52.6954 20.1531 52.5547 20.46 52.4607 20.8214C52.3669 21.1769 52.32 21.5814 52.32 22.0345C52.32 22.505 52.3698 22.9238 52.4696 23.2909C52.5751 23.6579 52.7247 23.9678 52.9183 24.2202C53.1119 24.4668 53.3466 24.6561 53.6224 24.788C53.898 24.9143 54.2089 24.9773 54.5551 24.9773C54.9012 24.9773 55.1799 24.9371 55.391 24.8569C55.6079 24.7709 55.7899 24.6792 55.9366 24.5816C56.0831 24.4783 56.2093 24.3864 56.3149 24.3062C56.4265 24.2202 56.5496 24.1771 56.6845 24.1771C56.8605 24.1771 56.9925 24.2432 57.0805 24.3751L57.7053 25.1495C57.4646 25.4248 57.2037 25.6571 56.9221 25.8464C56.6405 26.0301 56.3471 26.1791 56.0422 26.2939C55.743 26.4028 55.4321 26.4804 55.1094 26.5262C54.7867 26.5721 54.4671 26.5951 54.1502 26.5951C53.593 26.5951 53.0679 26.4947 52.5751 26.2939C52.0824 26.0874 51.6513 25.7891 51.2817 25.3989C50.9181 25.0088 50.6276 24.5329 50.4105 23.9707C50.1993 23.4028 50.0938 22.7573 50.0938 22.0345C50.0938 21.3864 50.1875 20.787 50.3753 20.2363C50.5689 19.6798 50.8505 19.2008 51.2201 18.7993C51.5897 18.392 52.0473 18.0736 52.5927 17.8442C53.1383 17.6147 53.766 17.5 54.4758 17.5C55.1505 17.5 55.74 17.6061 56.2445 17.8184C56.7549 18.0306 57.2123 18.3346 57.6173 18.7304L57.0452 19.5049Z" stroke="black" stroke-width="0.177765"/>
        <path d="M62.8185 17.5C63.3877 17.5 63.9097 17.5889 64.3849 17.7667C64.8659 17.9446 65.2795 18.2056 65.6255 18.5498C65.9718 18.8882 66.2416 19.3069 66.4351 19.806C66.6287 20.2994 66.7254 20.8644 66.7254 21.5012C66.7254 21.6618 66.7167 21.7965 66.6992 21.9056C66.6874 22.0088 66.661 22.0919 66.6198 22.1551C66.5847 22.2125 66.5349 22.2555 66.4703 22.2842C66.4058 22.307 66.3236 22.3185 66.224 22.3185H60.6452C60.7096 23.2248 60.959 23.8903 61.393 24.3149C61.8273 24.7394 62.402 24.9515 63.1177 24.9515C63.4697 24.9515 63.7719 24.9115 64.0242 24.8311C64.2822 24.7509 64.5051 24.6618 64.6929 24.5644C64.8865 24.4668 65.0537 24.3779 65.1943 24.2975C65.341 24.2173 65.4819 24.1771 65.6168 24.1771C65.7048 24.1771 65.7811 24.1943 65.8455 24.2288C65.9102 24.2632 65.9658 24.3119 66.0127 24.3751L66.6463 25.1495C66.4058 25.4248 66.136 25.6571 65.8368 25.8464C65.5375 26.0301 65.2237 26.1791 64.8952 26.2939C64.5725 26.4028 64.2411 26.4804 63.9009 26.5262C63.5666 26.5721 63.241 26.5951 62.9241 26.5951C62.2965 26.5951 61.7128 26.4947 61.1732 26.2939C60.6334 26.0874 60.1642 25.7862 59.7653 25.3905C59.3663 24.9888 59.0525 24.4955 58.8236 23.9105C58.5949 23.3196 58.4805 22.6369 58.4805 21.8626C58.4805 21.2602 58.5803 20.6951 58.7796 20.1674C58.9792 19.6339 59.2637 19.1721 59.6333 18.7821C60.0086 18.3863 60.4634 18.0736 60.9972 17.8442C61.5368 17.6147 62.144 17.5 62.8185 17.5ZM62.8625 19.023C62.2291 19.023 61.7333 19.198 61.3755 19.5479C61.0176 19.8978 60.7889 20.3939 60.6892 21.0365H64.7721C64.7721 20.7612 64.7338 20.503 64.6576 20.262C64.5814 20.0154 64.464 19.8003 64.3056 19.6167C64.1473 19.4332 63.9478 19.2897 63.7073 19.1865C63.4668 19.0775 63.1852 19.023 62.8625 19.023Z" stroke="black" stroke-width="0.177765"/>
        <path d="M84.2202 20.2454C84.2202 21.1576 84.0649 22.0036 83.7539 22.7838C83.443 23.5582 83.0059 24.2295 82.4427 24.7974C81.8795 25.3652 81.2021 25.8097 80.41 26.1311C79.6181 26.4465 78.7411 26.6042 77.779 26.6042C76.8169 26.6042 75.9371 26.4465 75.1392 26.1311C74.3473 25.8097 73.6668 25.3652 73.0978 24.7974C72.5347 24.2295 72.0977 23.5582 71.7868 22.7838C71.4759 22.0036 71.3203 21.1576 71.3203 20.2454C71.3203 19.3334 71.4759 18.4902 71.7868 17.7157C72.0977 16.9356 72.5347 16.2616 73.0978 15.6937C73.6668 15.1258 74.3473 14.6841 75.1392 14.3686C75.9371 14.0473 76.8169 13.8867 77.779 13.8867C78.7411 13.8867 79.6181 14.0473 80.41 14.3686C81.2021 14.6898 81.8795 15.1344 82.4427 15.7023C83.0059 16.2644 83.443 16.9356 83.7539 17.7157C84.0649 18.4902 84.2202 19.3334 84.2202 20.2454ZM81.7915 20.2454C81.7915 19.5629 81.6977 18.9519 81.5099 18.4127C81.3281 17.8678 81.0641 17.406 80.718 17.0274C80.372 16.6488 79.9495 16.3591 79.451 16.1583C78.9583 15.9575 78.4009 15.8572 77.779 15.8572C77.1572 15.8572 76.5971 15.9575 76.0984 16.1583C75.5997 16.3591 75.1745 16.6488 74.8225 17.0274C74.4764 17.406 74.2095 17.8678 74.0217 18.4127C73.8339 18.9519 73.7401 19.5629 73.7401 20.2454C73.7401 20.9281 73.8339 21.542 74.0217 22.0869C74.2095 22.6261 74.4764 23.085 74.8225 23.4636C75.1745 23.8366 75.5997 24.1232 76.0984 24.324C76.5971 24.5248 77.1572 24.6252 77.779 24.6252C78.4009 24.6252 78.9583 24.5248 79.451 24.324C79.9495 24.1232 80.372 23.8366 80.718 23.4636C81.0641 23.085 81.3281 22.6261 81.5099 22.0869C81.6977 21.542 81.7915 20.9281 81.7915 20.2454Z" stroke="black" stroke-width="0.177765"/>
        <path d="M85.9648 29.3469V17.6362H87.2937C87.4343 17.6362 87.5546 17.6677 87.6544 17.7308C87.7541 17.7939 87.8186 17.8914 87.8479 18.0233L88.024 18.8408C88.3876 18.4335 88.8043 18.1037 89.2734 17.8513C89.7486 17.5989 90.3029 17.4727 90.9365 17.4727C91.4292 17.4727 91.8782 17.573 92.2829 17.7738C92.6934 17.9746 93.0454 18.2671 93.3388 18.6515C93.6379 19.0301 93.8666 19.5005 94.0251 20.0626C94.1893 20.619 94.2716 21.2586 94.2716 21.9815C94.2716 22.6411 94.1806 23.252 93.9986 23.8142C93.8168 24.3764 93.5559 24.8639 93.2156 25.277C92.8812 25.6899 92.4736 26.0142 91.9924 26.2493C91.5172 26.4788 90.9834 26.5936 90.3909 26.5936C89.8806 26.5936 89.4466 26.5188 89.0887 26.3697C88.7367 26.215 88.42 26.0027 88.1384 25.733V29.3469H85.9648ZM90.1886 19.1506C89.7368 19.1506 89.3497 19.2452 89.0272 19.4345C88.7103 19.6181 88.414 19.8791 88.1384 20.2174V24.1756C88.3847 24.474 88.6516 24.6833 88.9392 24.8037C89.2323 24.9184 89.5463 24.9758 89.8806 24.9758C90.2091 24.9758 90.5053 24.9156 90.7694 24.7952C91.0392 24.6746 91.265 24.4912 91.447 24.2445C91.6346 23.9978 91.7784 23.6879 91.8782 23.3152C91.9777 22.9366 92.0277 22.492 92.0277 21.9815C92.0277 21.4651 91.9837 21.0291 91.8957 20.6736C91.8135 20.3122 91.6933 20.0196 91.5348 19.7959C91.3766 19.5722 91.183 19.4087 90.9541 19.3054C90.7312 19.2022 90.476 19.1506 90.1886 19.1506Z" stroke="black" stroke-width="0.177765"/>
        <path d="M99.6466 17.5C100.216 17.5 100.738 17.5889 101.213 17.7667C101.694 17.9446 102.108 18.2056 102.454 18.5498C102.8 18.8882 103.069 19.3069 103.263 19.806C103.457 20.2994 103.554 20.8644 103.554 21.5012C103.554 21.6618 103.545 21.7965 103.527 21.9056C103.515 22.0088 103.489 22.0919 103.448 22.1551C103.413 22.2125 103.363 22.2555 103.298 22.2842C103.234 22.307 103.152 22.3185 103.052 22.3185H97.4731C97.5377 23.2248 97.7871 23.8903 98.2211 24.3149C98.6552 24.7394 99.2301 24.9515 99.9458 24.9515C100.298 24.9515 100.6 24.9115 100.852 24.8311C101.11 24.7509 101.333 24.6618 101.521 24.5644C101.714 24.4668 101.882 24.3779 102.022 24.2975C102.169 24.2173 102.31 24.1771 102.445 24.1771C102.533 24.1771 102.609 24.1943 102.674 24.2288C102.738 24.2632 102.794 24.3119 102.841 24.3751L103.474 25.1495C103.234 25.4248 102.964 25.6571 102.665 25.8464C102.366 26.0301 102.052 26.1791 101.723 26.2939C101.401 26.4028 101.069 26.4804 100.729 26.5262C100.395 26.5721 100.069 26.5951 99.7522 26.5951C99.1246 26.5951 98.5407 26.4947 98.0011 26.2939C97.4615 26.0874 96.9921 25.7862 96.5932 25.3905C96.1943 24.9888 95.8804 24.4955 95.6517 23.9105C95.4228 23.3196 95.3086 22.6369 95.3086 21.8626C95.3086 21.2602 95.4082 20.6951 95.6077 20.1674C95.8071 19.6339 96.0916 19.1721 96.4612 18.7821C96.8368 18.3863 97.2913 18.0736 97.8251 17.8442C98.3649 17.6147 98.9719 17.5 99.6466 17.5ZM99.6906 19.023C99.057 19.023 98.5614 19.198 98.2036 19.5479C97.8458 19.8978 97.6169 20.3939 97.5171 21.0365H101.6C101.6 20.7612 101.562 20.503 101.486 20.262C101.41 20.0154 101.292 19.8003 101.134 19.6167C100.975 19.4332 100.776 19.2897 100.535 19.1865C100.295 19.0775 100.013 19.023 99.6906 19.023Z" stroke="black" stroke-width="0.177765"/>
        <path d="M105.32 26.466V17.6377H106.649C106.931 17.6377 107.115 17.7667 107.203 18.0249L107.353 18.7218C107.535 18.5383 107.725 18.3719 107.925 18.2228C108.13 18.0736 108.344 17.9446 108.567 17.8356C108.796 17.7266 109.039 17.6434 109.298 17.586C109.556 17.5287 109.837 17.5 110.142 17.5C110.635 17.5 111.072 17.5832 111.453 17.7495C111.835 17.9101 112.152 18.1396 112.404 18.4379C112.662 18.7304 112.855 19.0832 112.985 19.4963C113.119 19.9035 113.187 20.3539 113.187 20.8472V26.466H111.013V20.8472C111.013 20.308 110.884 19.8921 110.626 19.5995C110.374 19.3012 109.993 19.1521 109.482 19.1521C109.107 19.1521 108.755 19.2353 108.426 19.4016C108.098 19.568 107.787 19.7945 107.494 20.0814V26.466H105.32Z" stroke="black" stroke-width="0.177765"/>
        <path d="M120.088 14.0234C120.194 14.0234 120.282 14.0292 120.352 14.0407C120.423 14.0464 120.484 14.0636 120.537 14.0923C120.596 14.1152 120.652 14.1525 120.704 14.2041C120.757 14.25 120.816 14.3131 120.88 14.3934L127.559 22.714C127.536 22.5132 127.518 22.3182 127.506 22.129C127.5 21.934 127.498 21.7532 127.498 21.5869V14.0234H129.583V26.4657H128.36C128.172 26.4657 128.017 26.437 127.894 26.3797C127.77 26.3223 127.65 26.2191 127.533 26.0698L120.88 17.7836C120.898 17.9672 120.91 18.1508 120.916 18.3343C120.927 18.5122 120.933 18.6757 120.933 18.8248V26.4657H118.848V14.0234H120.088Z" stroke="black" stroke-width="0.177765"/>
        <path d="M135.76 17.5C136.329 17.5 136.851 17.5889 137.326 17.7667C137.807 17.9446 138.221 18.2056 138.567 18.5498C138.913 18.8882 139.183 19.3069 139.377 19.806C139.57 20.2994 139.667 20.8644 139.667 21.5012C139.667 21.6618 139.658 21.7965 139.641 21.9056C139.629 22.0088 139.602 22.0919 139.561 22.1551C139.526 22.2125 139.476 22.2555 139.412 22.2842C139.347 22.307 139.265 22.3185 139.165 22.3185H133.587C133.651 23.2248 133.9 23.8903 134.334 24.3149C134.769 24.7394 135.343 24.9515 136.059 24.9515C136.411 24.9515 136.713 24.9115 136.966 24.8311C137.224 24.7509 137.447 24.6618 137.634 24.5644C137.828 24.4668 137.995 24.3779 138.136 24.2975C138.282 24.2173 138.423 24.1771 138.558 24.1771C138.646 24.1771 138.722 24.1943 138.787 24.2288C138.852 24.2632 138.907 24.3119 138.954 24.3751L139.588 25.1495C139.347 25.4248 139.077 25.6571 138.778 25.8464C138.479 26.0301 138.165 26.1791 137.837 26.2939C137.514 26.4028 137.183 26.4804 136.842 26.5262C136.508 26.5721 136.182 26.5951 135.866 26.5951C135.238 26.5951 134.654 26.4947 134.115 26.2939C133.575 26.0874 133.106 25.7862 132.707 25.3905C132.308 24.9888 131.994 24.4955 131.765 23.9105C131.536 23.3196 131.422 22.6369 131.422 21.8626C131.422 21.2602 131.522 20.6951 131.721 20.1674C131.921 19.6339 132.205 19.1721 132.575 18.7821C132.95 18.3863 133.405 18.0736 133.939 17.8442C134.478 17.6147 135.085 17.5 135.76 17.5ZM135.804 19.023C135.171 19.023 134.675 19.198 134.317 19.5479C133.959 19.8978 133.73 20.3939 133.631 21.0365H137.713C137.713 20.7612 137.675 20.503 137.599 20.262C137.523 20.0154 137.405 19.8003 137.247 19.6167C137.089 19.4332 136.889 19.2897 136.649 19.1865C136.408 19.0775 136.127 19.023 135.804 19.023Z" stroke="black" stroke-width="0.177765"/>
        <path d="M144.393 26.6033C143.613 26.6033 143.012 26.3882 142.589 25.9581C142.167 25.5221 141.956 24.9225 141.956 24.1597V19.2292H141.041C140.923 19.2292 140.821 19.1919 140.733 19.1174C140.65 19.0428 140.609 18.9309 140.609 18.7818V17.9385L142.061 17.7062L142.519 15.2969C142.542 15.1822 142.595 15.0933 142.677 15.0302C142.765 14.9671 142.874 14.9355 143.003 14.9355H144.129V17.7148H146.505V19.2292H144.129V24.0134C144.129 24.2888 144.2 24.5039 144.34 24.6587C144.481 24.8136 144.669 24.891 144.904 24.891C145.039 24.891 145.15 24.8766 145.238 24.8479C145.332 24.8136 145.411 24.7793 145.475 24.7447C145.546 24.7104 145.607 24.6789 145.66 24.6502C145.713 24.6156 145.766 24.5985 145.819 24.5985C145.883 24.5985 145.936 24.6156 145.977 24.6502C146.018 24.6789 146.062 24.7247 146.109 24.7877L146.76 25.8203C146.443 26.0785 146.08 26.2734 145.669 26.4055C145.258 26.5374 144.833 26.6033 144.393 26.6033Z" stroke="black" stroke-width="0.177765"/>
        <path d="M147.133 17.6364H148.857C149.022 17.6364 149.16 17.6736 149.271 17.7482C149.383 17.8228 149.453 17.9174 149.482 18.0322L150.776 22.7475C150.846 23.0055 150.902 23.258 150.943 23.5047C150.99 23.7514 151.034 23.998 151.075 24.2447C151.139 23.998 151.207 23.7514 151.277 23.5047C151.354 23.258 151.433 23.0055 151.515 22.7475L153.011 18.0149C153.046 17.9002 153.116 17.8056 153.222 17.731C153.328 17.6564 153.451 17.6191 153.592 17.6191H154.551C154.709 17.6191 154.841 17.6564 154.947 17.731C155.052 17.8056 155.123 17.9002 155.158 18.0149L156.636 22.8336C156.712 23.0803 156.78 23.3211 156.839 23.5562C156.903 23.7857 156.965 24.018 157.023 24.2532C157.064 24.0065 157.108 23.7598 157.155 23.5132C157.208 23.2665 157.273 23.0114 157.349 22.7475L158.686 18.0322C158.716 17.9174 158.786 17.8228 158.897 17.7482C159.009 17.6736 159.138 17.6364 159.285 17.6364H160.93L158.07 26.4647H156.319C156.132 26.4647 155.997 26.3384 155.915 26.0861L154.287 20.9835C154.234 20.8172 154.184 20.6508 154.137 20.4845C154.096 20.3124 154.061 20.1431 154.032 19.9768C153.996 20.1489 153.958 20.3211 153.917 20.493C153.876 20.6594 153.829 20.8287 153.776 21.0007L152.131 26.0861C152.049 26.3384 151.89 26.4647 151.656 26.4647H149.993L147.133 17.6364Z" stroke="black" stroke-width="0.177765"/>
        <path d="M166.01 17.5C166.685 17.5 167.295 17.6061 167.84 17.8184C168.392 18.0306 168.861 18.3318 169.248 18.7218C169.635 19.1119 169.935 19.588 170.146 20.1502C170.357 20.7123 170.463 21.3406 170.463 22.0345C170.463 22.7345 170.357 23.3654 170.146 23.9276C169.935 24.4899 169.635 24.9688 169.248 25.3646C168.861 25.7604 168.392 26.0644 167.84 26.2767C167.295 26.4888 166.685 26.5951 166.01 26.5951C165.335 26.5951 164.723 26.4888 164.171 26.2767C163.62 26.0644 163.147 25.7604 162.754 25.3646C162.367 24.9688 162.065 24.4899 161.848 23.9276C161.637 23.3654 161.531 22.7345 161.531 22.0345C161.531 21.3406 161.637 20.7123 161.848 20.1502C162.065 19.588 162.367 19.1119 162.754 18.7218C163.147 18.3318 163.62 18.0306 164.171 17.8184C164.723 17.6061 165.335 17.5 166.01 17.5ZM166.01 24.9602C166.761 24.9602 167.315 24.7135 167.673 24.2202C168.037 23.7268 168.219 23.004 168.219 22.0519C168.219 21.0996 168.037 20.3739 167.673 19.8748C167.315 19.3758 166.761 19.1263 166.01 19.1263C165.247 19.1263 164.684 19.3787 164.321 19.8835C163.957 20.3826 163.775 21.1052 163.775 22.0519C163.775 22.9983 163.957 23.7212 164.321 24.2202C164.684 24.7135 165.247 24.9602 166.01 24.9602Z" stroke="black" stroke-width="0.177765"/>
        <path d="M172.152 26.4645V17.6362H173.428C173.651 17.6362 173.807 17.6763 173.895 17.7566C173.983 17.8369 174.041 17.9746 174.071 18.1696L174.203 19.2366C174.525 18.6916 174.904 18.2614 175.338 17.9459C175.772 17.6304 176.259 17.4727 176.798 17.4727C177.244 17.4727 177.614 17.573 177.907 17.7738L177.626 19.3657C177.608 19.4689 177.57 19.5435 177.511 19.5894C177.453 19.6295 177.373 19.6496 177.274 19.6496C177.186 19.6496 177.065 19.6295 176.913 19.5894C176.76 19.5492 176.558 19.5291 176.306 19.5291C175.854 19.5291 175.467 19.6525 175.144 19.8991C174.822 20.1401 174.549 20.4958 174.326 20.9661V26.4645H172.152Z" stroke="black" stroke-width="0.177765"/>
        <path d="M181.541 13.6797V21.0021H181.945C182.092 21.0021 182.206 20.9821 182.288 20.9419C182.371 20.9017 182.459 20.8272 182.552 20.7183L184.796 18.0078C184.896 17.8931 185.002 17.8042 185.113 17.7411C185.225 17.6722 185.371 17.6378 185.553 17.6378H187.542L184.735 20.9161C184.635 21.0367 184.532 21.1484 184.427 21.2518C184.321 21.3492 184.207 21.4352 184.084 21.5098C184.207 21.5958 184.315 21.6963 184.409 21.811C184.503 21.9257 184.597 22.049 184.691 22.1811L187.7 26.4662H185.738C185.568 26.4662 185.424 26.4375 185.307 26.3801C185.189 26.3227 185.084 26.2251 184.99 26.0876L182.693 22.7403C182.605 22.6084 182.517 22.5223 182.429 22.4821C182.341 22.4421 182.209 22.4219 182.033 22.4219H181.541V26.4662H179.367V13.6797H181.541Z" stroke="black" stroke-width="0.177765"/>
    </g>
    <defs>
        <clipPath id="clip0_48372_185417">
            <rect width="188" height="40" fill="white"/>
        </clipPath>
    </defs>
</svg>
