<svg xmlns="http://www.w3.org/2000/svg" width="24" height="24" viewBox="0 0 24 24">
    <!-- Background rectangle -->
    <g clip-path="url(#clip0)">
        <rect width="24" height="24" rx="8" fill="#0F0137"/>
    </g>
    <defs>
        <clipPath id="clip0">
            <rect width="24" height="24" fill="white"/>
        </clipPath>
    </defs>

    <!-- Centered star pattern -->
    <path d="M12 4L11.252 8.99102L12 11.4976L12.748 8.99102L12 4Z" fill="white"/>
    <path d="M12 20L12.748 15.009L12 12.5024L11.252 15.009L12 20Z" fill="white"/>
    <path d="M20 12L15.009 11.252L12.5024 12L15.009 12.748L20 12Z" fill="white"/>
    <path d="M4 12L8.99102 12.748L11.4976 12L8.99102 11.252L4 12Z" fill="white"/>
    <path d="M17.6225 6.3088L13.5828 9.3337L12.3533 11.6425L14.647 10.3851L17.6225 6.3088Z" fill="white"/>
    <path d="M6.37747 17.6912L10.4172 14.6663L11.6467 12.3575L9.35301 13.6149L6.37747 17.6912Z" fill="white"/>
    <path d="M17.6908 17.6225L14.6659 13.5828L12.3571 12.3533L13.6145 14.647L17.6908 17.6225Z" fill="white"/>
    <path d="M6.30921 6.37747L9.33411 10.4172L11.6429 11.6467L10.3855 9.35301L6.30921 6.37747Z" fill="white"/>
</svg>