<svg width="80" height="80" viewBox="0 0 80 80" fill="none" xmlns="http://www.w3.org/2000/svg">
    <path d="M73.0016 7.86572H6.99844C4.21563 7.86572 1.95312 10.1298 1.95312 12.911V58.1579C1.95312 60.9407 4.21719 63.2032 6.99844 63.2032H33.1016L32.5328 66.9813C32.4702 67.4072 32.3241 67.8165 32.1029 68.1857C31.8817 68.555 31.5897 68.8769 31.2438 69.1329L28.6859 71.0392H26.4969C26.1953 71.0392 25.95 71.2845 25.95 71.586C25.95 71.8876 26.1953 72.1329 26.4969 72.1329H53.5016C53.8031 72.1329 54.0484 71.8876 54.0484 71.586C54.0484 71.2845 53.8031 71.0392 53.5016 71.0392H51.3125L48.7547 69.1329C48.0531 68.6095 47.5953 67.8454 47.4656 66.9813L47.1766 65.0626C47.1547 64.9194 47.077 64.7906 46.9605 64.7045C46.8439 64.6185 46.698 64.582 46.5547 64.6032C46.4113 64.6248 46.2824 64.7025 46.1963 64.8191C46.1101 64.9357 46.0738 65.0817 46.0953 65.2251L46.3844 67.1438C46.5578 68.2954 47.1672 69.3142 48.1016 70.0095L49.4828 71.0392H40.2563C42.575 70.0173 44.175 67.6735 44.1109 64.9735L44.0688 63.2032H73C75.7828 63.2032 78.0453 60.9392 78.0453 58.1579V12.9126C78.0469 10.1298 75.7828 7.86572 73.0016 7.86572ZM73.0016 62.1095H6.99844C4.81875 62.1095 3.04688 60.336 3.04688 58.1579V12.9126C3.04688 10.7329 4.82031 8.96103 6.99844 8.96103H73C75.1797 8.96103 76.9516 10.7345 76.9516 12.9126V51.2626H5.75469C5.45313 51.2626 5.20781 51.5079 5.20781 51.8095C5.20781 52.111 5.45313 52.3563 5.75469 52.3563H76.9531V58.1595C76.9531 60.3376 75.1797 62.1095 73.0016 62.1095Z" fill="#9A9A9A"/>
    <path d="M42.1814 56.8096H37.8174C37.5158 56.8096 37.2705 57.0549 37.2705 57.3564C37.2705 57.658 37.5158 57.9033 37.8174 57.9033H42.1814C42.483 57.9033 42.7283 57.658 42.7283 57.3564C42.7283 57.0549 42.4846 56.8096 42.1814 56.8096Z" fill="#9A9A9A"/>
    <path d="M72.682 12.1782H56.3602C55.0398 12.1782 54.0961 13.4548 54.4805 14.7173C54.8585 15.9555 55.5278 17.085 56.4322 18.0113C57.3367 18.9375 58.45 19.6334 59.6789 20.0407L68.432 22.9438C71.8789 24.0876 75.4336 21.5204 75.4336 17.8892V14.9282C75.4336 13.4095 74.2008 12.1782 72.682 12.1782Z" fill="#E1EAF8"/>
    <path d="M58.5658 35.9426L53.7641 38.7149C53.4547 38.8935 53.0735 38.8935 52.7641 38.7149L47.9624 35.9426" stroke="#0166FF" stroke-width="1.5" stroke-miterlimit="10"/>
    <path d="M53.2641 45.1249L48.4624 42.3526C48.153 42.174 47.9624 41.8438 47.9624 41.4866V36.5194C47.9624 36.1621 48.153 35.832 48.4624 35.6534L52.7641 33.1698C53.0735 32.9911 53.4547 32.9911 53.7641 33.1698L58.0658 35.6534C58.3752 35.832 58.5658 36.1621 58.5658 36.5194V41.4866C58.5658 41.8438 58.3752 42.174 58.0658 42.3526L53.2641 45.1249ZM53.2641 45.1249V39.003" stroke="#0166FF" stroke-width="1.5" stroke-miterlimit="10"/>
    <path d="M53.2634 30.0121C54.1124 30.0121 54.8007 29.3239 54.8007 28.4748C54.8007 27.6258 54.1124 26.9375 53.2634 26.9375C52.4144 26.9375 51.7261 27.6258 51.7261 28.4748C51.7261 29.3239 52.4144 30.0121 53.2634 30.0121Z" stroke="#0166FF" stroke-width="1.5" stroke-miterlimit="10"/>
    <path d="M53.2661 30.094V33.1549" stroke="#0166FF" stroke-width="1.5" stroke-miterlimit="10"/>
    <path d="M44.4632 45.7615C45.302 45.6301 45.8755 44.8437 45.7442 44.0049C45.6128 43.166 44.8264 42.5925 43.9876 42.7239C43.1487 42.8552 42.5752 43.6417 42.7066 44.4805C42.8379 45.3193 43.6244 45.8928 44.4632 45.7615Z" stroke="#0166FF" stroke-width="1.5" stroke-miterlimit="10"/>
    <path d="M45.6255 43.4303L48.2728 41.8938" stroke="#0166FF" stroke-width="1.5" stroke-miterlimit="10"/>
    <path d="M63.8257 44.4762C63.9554 43.6371 63.3804 42.8517 62.5413 42.722C61.7022 42.5923 60.9169 43.1673 60.7871 44.0064C60.6574 44.8454 61.2324 45.6308 62.0715 45.7605C62.9106 45.8903 63.6959 45.3152 63.8257 44.4762Z" stroke="#0166FF" stroke-width="1.5" stroke-miterlimit="10"/>
    <path d="M60.9061 43.4303L58.2588 41.8938" stroke="#0166FF" stroke-width="1.5" stroke-miterlimit="10"/>
    <path d="M48.8994 21.6006L29.1004 41.3996" stroke="#9A9A9A" stroke-linecap="round" stroke-linejoin="round"/>
    <path d="M15 18.9194L17.5986 16.3307C18.0412 15.8898 18.7588 15.8898 19.2014 16.3307L21.8 18.9194M18.4 16.6614L18.4 30.2096M25.2 29.0806L27.7986 31.6693C28.2412 32.1102 28.9588 32.1102 29.4014 31.6693L32 29.0806M28.6 31.3386V17.7904" stroke="#0166FF" stroke-width="1.5" stroke-linecap="round"/>
</svg>
