<svg width="16" height="16" viewBox="0 0 16 16" fill="none" xmlns="http://www.w3.org/2000/svg">
    <g clip-path="url(#clip0_51361_418)">
        <rect x="0.666504" y="0.666687" width="14.6667" height="14.6667" rx="4" fill="#0166FF"/>
        <path d="M8.89706 4.74078L6.63209 11.2593H5.37581L3.11084 4.74078H4.3121L5.63257 8.73041C5.67536 8.83996 5.71815 8.98299 5.76095 9.1595C5.80985 9.32992 5.8557 9.50642 5.8985 9.68901C5.9474 9.86552 5.98408 10.0238 6.00854 10.1638C6.02688 10.0238 6.05744 9.86552 6.10023 9.68901C6.14914 9.50642 6.19805 9.32992 6.24695 9.1595C6.29586 8.98299 6.33865 8.83996 6.37533 8.73041L7.6958 4.74078H8.89706Z" fill="white"/>
        <path d="M12.4812 11.2593H11.3258V7.19664C11.3258 7.06274 11.3258 6.9258 11.3258 6.78581C11.3319 6.64582 11.338 6.50584 11.3441 6.36585C11.3503 6.21978 11.3564 6.08587 11.3625 5.96415C11.3013 6.02501 11.2249 6.09805 11.1332 6.18326C11.0415 6.26238 10.9468 6.34455 10.849 6.42976L10.1154 7.01405L9.53767 6.30194L11.5184 4.74078H12.4812V11.2593Z" fill="white"/>
    </g>
    <defs>
        <clipPath id="clip0_51361_418">
            <rect width="14.6667" height="14.6667" fill="white" transform="translate(0.666504 0.666687)"/>
        </clipPath>
    </defs>
</svg>
