<svg width="16" height="16" viewBox="0 0 16 16" fill="none" xmlns="http://www.w3.org/2000/svg">
    <g clip-path="url(#clip0_51361_343)">
        <rect x="0.666504" y="0.666687" width="14.6667" height="14.6667" rx="4" fill="#0166FF"/>
        <path d="M8.45145 4.83082L6.2015 11.2593H4.95356L2.70361 4.83082H3.8969L5.20861 8.76534C5.25112 8.87338 5.29363 9.01443 5.33614 9.1885C5.38472 9.35657 5.43027 9.53063 5.47278 9.7107C5.52136 9.88477 5.5578 10.0408 5.58209 10.1789C5.6003 10.0408 5.63067 9.88477 5.67318 9.7107C5.72176 9.53063 5.77034 9.35657 5.81892 9.1885C5.8675 9.01443 5.91001 8.87338 5.94645 8.76534L7.25816 4.83082H8.45145Z" fill="white"/>
        <path d="M13.2962 11.2593H8.84186V10.422L10.4997 8.76534C10.8276 8.43521 11.0948 8.1531 11.3013 7.91901C11.5139 7.67892 11.6687 7.45683 11.7659 7.25275C11.8691 7.04868 11.9207 6.82659 11.9207 6.5865C11.9207 6.29238 11.8357 6.0733 11.6657 5.92924C11.4956 5.77918 11.271 5.70416 10.9916 5.70416C10.7183 5.70416 10.4633 5.76118 10.2264 5.87522C9.98961 5.98326 9.74366 6.13932 9.48861 6.3434L8.86008 5.59611C9.04226 5.44005 9.23659 5.299 9.44306 5.17295C9.64953 5.0409 9.88333 4.93586 10.1445 4.85783C10.4056 4.7798 10.7092 4.74078 11.0554 4.74078C11.4744 4.74078 11.8327 4.81581 12.1302 4.96587C12.4339 5.10993 12.6677 5.311 12.8316 5.5691C12.9956 5.8272 13.0776 6.12732 13.0776 6.46945C13.0776 6.73355 13.0381 6.97965 12.9592 7.20774C12.8802 7.42982 12.7648 7.64891 12.613 7.86499C12.4612 8.08107 12.276 8.30016 12.0574 8.52224C11.8388 8.74433 11.5928 8.98442 11.3195 9.24252L10.2902 10.2239V10.2779H13.2962V11.2593Z" fill="white"/>
    </g>
    <defs>
        <clipPath id="clip0_51361_343">
            <rect width="14.6667" height="14.6667" fill="white" transform="translate(0.666504 0.666687)"/>
        </clipPath>
    </defs>
</svg>
