<svg width="25" height="24" viewBox="0 0 25 24" fill="none" xmlns="http://www.w3.org/2000/svg">
    <path d="M18.8491 11.9995C18.8491 12.5202 18.4431 12.9424 17.9421 12.9424C17.4412 12.9424 17.0352 12.5202 17.0352 11.9995C17.0352 11.4788 17.4412 11.0566 17.9421 11.0566C18.4431 11.0566 18.8491 11.4788 18.8491 11.9995Z" fill="white"/>
    <path fill-rule="evenodd" clip-rule="evenodd" d="M10.6349 3.75H13.4581C15.125 3.74998 16.4452 3.74997 17.4784 3.89439C18.5417 4.043 19.4025 4.35614 20.0812 5.06174C20.9196 5.93331 21.1868 7.10057 21.2838 8.61522C21.8073 8.85472 22.2027 9.36123 22.2462 10.0028C22.2501 10.0596 22.25 10.1208 22.25 10.1775C22.25 10.1826 22.25 10.1877 22.25 10.1928V13.8072C22.25 13.8123 22.25 13.8174 22.25 13.8225C22.25 13.8792 22.2501 13.9404 22.2462 13.9972C22.2027 14.6388 21.8073 15.1453 21.2838 15.3848C21.1868 16.8995 20.9196 18.0667 20.0812 18.9383C19.4025 19.6438 18.5417 19.957 17.4784 20.1056C16.4452 20.25 15.125 20.25 13.4581 20.25H10.6349C8.96808 20.25 7.64785 20.25 6.61461 20.1056C5.55125 19.957 4.69058 19.6438 4.01182 18.9383C3.33308 18.2327 3.03185 17.3379 2.88889 16.2325C2.74997 15.1584 2.74998 13.786 2.75 12.0532V11.9468C2.74998 10.214 2.74997 8.84161 2.88889 7.7675C3.03185 6.66207 3.33308 5.76735 4.01182 5.06174C4.69058 4.35614 5.55125 4.043 6.61461 3.89439C7.64785 3.74997 8.96807 3.74998 10.6349 3.75ZM19.9081 15.5357H18.1512C16.2055 15.5357 14.5407 14.0011 14.5407 12C14.5407 9.99884 16.2055 8.46429 18.1512 8.46429H19.9081C19.8049 7.19949 19.5713 6.53183 19.1192 6.06179C18.7354 5.66277 18.2096 5.42359 17.2972 5.29606C16.3651 5.16579 15.1364 5.16429 13.407 5.16429H10.686C8.9566 5.16429 7.72795 5.16579 6.79589 5.29606C5.88339 5.42359 5.35766 5.66277 4.97382 6.06179C4.58998 6.46082 4.3599 7.00735 4.23722 7.95594C4.11191 8.92488 4.11047 10.2022 4.11047 12C4.11047 13.7978 4.11191 15.0751 4.23722 16.0441C4.3599 16.9926 4.58998 17.5392 4.97382 17.9382C5.35766 18.3372 5.88339 18.5764 6.79589 18.7039C7.72795 18.8342 8.9566 18.8357 10.686 18.8357H13.407C15.1364 18.8357 16.3651 18.8342 17.2972 18.7039C18.2096 18.5764 18.7354 18.3372 19.1192 17.9382C19.5713 17.4682 19.8049 16.8006 19.9081 15.5357ZM20.5934 9.87879C20.575 9.87858 20.5509 9.87857 20.5116 9.87857H18.1512C16.8602 9.87857 15.9012 10.8768 15.9012 12C15.9012 13.1232 16.8602 14.1214 18.1512 14.1214H20.5116C20.5509 14.1214 20.575 14.1214 20.5934 14.1212C20.6047 14.1211 20.6107 14.121 20.6135 14.1208L20.6155 14.1207C20.8026 14.1089 20.8829 13.9777 20.8891 13.8988C20.8891 13.8988 20.8893 13.8929 20.8894 13.8844C20.8895 13.8676 20.8895 13.8454 20.8895 13.8072V10.1928C20.8895 10.1546 20.8895 10.1324 20.8894 10.1156C20.8893 10.1071 20.8891 10.1012 20.8891 10.1012C20.8829 10.0223 20.8026 9.89111 20.6155 9.87929C20.6155 9.87929 20.6111 9.87898 20.5934 9.87879ZM7.96512 8.46429C8.3408 8.46429 8.64535 8.78089 8.64535 9.17143V14.8286C8.64535 15.2191 8.3408 15.5357 7.96512 15.5357C7.58944 15.5357 7.28488 15.2191 7.28488 14.8286V9.17143C7.28488 8.78089 7.58944 8.46429 7.96512 8.46429Z" fill="white"/>
</svg>
